# Blender v2.79 (sub 0) OBJ File: 'F-Colliders.blend'
# www.blender.org
mtllib F-Colliders.mtl
o FCollider_Fcollider
v -0.587204 2.487155 -0.364813
v -0.587204 -0.264981 -0.364813
v -0.587204 2.487155 -0.102143
v -0.587204 -0.264981 -0.102143
v -0.853184 2.487155 -0.364813
v -0.853184 -0.264981 -0.364813
v -0.853184 2.487155 -0.102143
v -0.853184 -0.264981 -0.102143
v 1.272800 2.487155 -0.364813
v 1.272800 -0.264981 -0.364813
v 1.272800 2.487155 -0.102143
v 1.272800 -0.264981 -0.102143
v 1.006821 2.487155 -0.364813
v 1.006821 -0.264981 -0.364813
v 1.006821 2.487155 -0.102143
v 1.006821 -0.264981 -0.102143
v 3.357161 2.487155 -0.364813
v 3.357161 -0.264981 -0.364813
v 3.357161 2.487155 -0.102143
v 3.357161 -0.264981 -0.102143
v 3.091181 2.487155 -0.364813
v 3.091181 -0.264981 -0.364813
v 3.091181 2.487155 -0.102143
v 3.091181 -0.264981 -0.102143
v -0.985161 1.830591 0.034419
v -0.985161 2.257167 0.034419
v -0.985161 1.830591 -0.038547
v -0.985161 2.257167 -0.038547
v 3.514433 1.830591 0.034419
v 3.514433 2.257167 0.034419
v 3.514433 1.830591 -0.038547
v 3.514433 2.257167 -0.038547
v -0.985161 1.972783 -0.044635
v -0.985161 2.114975 -0.044635
v -0.985161 2.114975 -0.117601
v -0.985161 1.972783 -0.117601
v 3.514433 2.114975 -0.117601
v 3.514433 1.972783 -0.117601
v 3.514433 2.114975 -0.044635
v 3.514433 1.972783 -0.044635
v -0.985161 1.351878 0.034419
v -0.985161 1.778454 0.034419
v -0.985161 1.351878 -0.038547
v -0.985161 1.778454 -0.038547
v 3.514433 1.351878 0.034419
v 3.514433 1.778454 0.034419
v 3.514433 1.351878 -0.038547
v 3.514433 1.778454 -0.038547
v -0.985161 1.494070 -0.044635
v -0.985161 1.636262 -0.044635
v -0.985161 1.636262 -0.117601
v -0.985161 1.494070 -0.117601
v 3.514433 1.636262 -0.117601
v 3.514433 1.494070 -0.117601
v 3.514433 1.636262 -0.044635
v 3.514433 1.494070 -0.044635
v -0.985161 0.867095 0.034419
v -0.985161 1.293670 0.034419
v -0.985161 0.867095 -0.038547
v -0.985161 1.293670 -0.038547
v 3.514433 0.867095 0.034419
v 3.514433 1.293670 0.034419
v 3.514433 0.867095 -0.038547
v 3.514433 1.293670 -0.038547
v -0.985161 1.009287 -0.044635
v -0.985161 1.151479 -0.044635
v -0.985161 1.151479 -0.117601
v -0.985161 1.009287 -0.117601
v 3.514433 1.151479 -0.117601
v 3.514433 1.009287 -0.117601
v 3.514433 1.151479 -0.044635
v 3.514433 1.009287 -0.044635
v -0.985161 0.366384 0.034419
v -0.985161 0.792960 0.034419
v -0.985161 0.366384 -0.038547
v -0.985161 0.792960 -0.038547
v 3.514433 0.366384 0.034419
v 3.514433 0.792960 0.034419
v 3.514433 0.366384 -0.038547
v 3.514433 0.792960 -0.038547
v -0.985161 0.508576 -0.044635
v -0.985161 0.650768 -0.044635
v -0.985161 0.650768 -0.117601
v -0.985161 0.508576 -0.117601
v 3.514433 0.650768 -0.117601
v 3.514433 0.508576 -0.117601
v 3.514433 0.650768 -0.044635
v 3.514433 0.508576 -0.044635
vt 0.000000 0.000000
vt 1.000000 0.000000
vt 1.000000 1.000000
vt 0.000000 1.000000
vt 0.000000 0.000000
vt 1.000000 0.000000
vt 1.000000 1.000000
vt 0.000000 1.000000
vt 0.000000 0.000000
vt 1.000000 0.000000
vt 1.000000 1.000000
vt 0.000000 1.000000
vt 0.000000 0.000000
vt 1.000000 0.000000
vt 1.000000 1.000000
vt 0.000000 1.000000
vt 0.000000 0.000000
vt 1.000000 1.000000
vt 0.000000 1.000000
vt 0.000000 0.000000
vt 1.000000 0.000000
vt 0.000000 1.000000
vt 0.000000 0.000000
vt 1.000000 0.000000
vt 1.000000 1.000000
vt 0.000000 1.000000
vt 0.000000 0.000000
vt 1.000000 0.000000
vt 1.000000 1.000000
vt 0.000000 1.000000
vt 1.000000 0.000000
vt 1.000000 1.000000
vt 0.000000 1.000000
vt 0.000000 0.000000
vt 1.000000 0.000000
vt 1.000000 1.000000
vt 0.000000 1.000000
vt 1.000000 0.000000
vt 1.000000 1.000000
vt 0.000000 1.000000
vt 0.000000 0.000000
vt 1.000000 0.000000
vt 1.000000 1.000000
vt 0.000000 1.000000
vt 0.000000 0.000000
vt 1.000000 0.000000
vt 1.000000 1.000000
vt 0.000000 1.000000
vt 0.000000 0.000000
vt 1.000000 0.000000
vt 1.000000 1.000000
vt 0.000000 1.000000
vt 0.000000 0.000000
vt 1.000000 0.000000
vt 1.000000 1.000000
vt 0.000000 1.000000
vt 0.000000 0.000000
vt 1.000000 0.000000
vt 1.000000 1.000000
vt 0.000000 1.000000
vt 0.000000 0.000000
vt 1.000000 0.000000
vt 1.000000 1.000000
vt 0.000000 1.000000
vt 0.000000 0.000000
vt 1.000000 1.000000
vt 0.000000 1.000000
vt 0.000000 0.000000
vt 1.000000 0.000000
vt 0.000000 1.000000
vt 0.000000 0.000000
vt 1.000000 0.000000
vt 0.000000 0.000000
vt 1.000000 0.000000
vt 1.000000 1.000000
vt 0.000000 0.000000
vt 1.000000 0.000000
vt 1.000000 1.000000
vt 0.000000 1.000000
vt 1.000000 0.000000
vt 1.000000 1.000000
vt 0.000000 1.000000
vt 0.000000 0.000000
vt 1.000000 0.000000
vt 1.000000 1.000000
vt 0.000000 1.000000
vt 0.000000 0.000000
vt 1.000000 0.000000
vt 1.000000 1.000000
vt 0.000000 1.000000
vt 0.000000 0.000000
vt 1.000000 0.000000
vt 1.000000 1.000000
vt 0.000000 1.000000
vt 0.000000 0.000000
vt 1.000000 0.000000
vt 1.000000 1.000000
vt 0.000000 1.000000
vt 0.000000 0.000000
vt 1.000000 0.000000
vt 1.000000 1.000000
vt 0.000000 1.000000
vt 0.000000 0.000000
vt 1.000000 0.000000
vt 1.000000 1.000000
vt 0.000000 1.000000
vt 1.000000 1.000000
vt 0.000000 0.000000
vt 1.000000 0.000000
vt 1.000000 1.000000
vt 0.000000 1.000000
vt 0.000000 0.000000
vt 1.000000 1.000000
vt 1.000000 1.000000
vt 0.000000 1.000000
vt 0.000000 0.000000
vt 1.000000 0.000000
vt 1.000000 1.000000
vt 0.000000 1.000000
vt 0.000000 0.000000
vt 1.000000 0.000000
vt 1.000000 1.000000
vt 0.000000 1.000000
vt 0.000000 0.000000
vt 1.000000 0.000000
vt 0.000000 1.000000
vt 1.000000 0.000000
vt 1.000000 1.000000
vt 0.000000 1.000000
vt 0.000000 0.000000
vt 1.000000 0.000000
vt 1.000000 1.000000
vt 0.000000 1.000000
vt 0.000000 0.000000
vt 1.000000 0.000000
vt 1.000000 1.000000
vt 0.000000 1.000000
vt 0.000000 0.000000
vt 1.000000 0.000000
vt 1.000000 1.000000
vt 0.000000 1.000000
vt 0.000000 0.000000
vt 1.000000 0.000000
vt 1.000000 1.000000
vt 0.000000 1.000000
vt 0.000000 0.000000
vt 1.000000 0.000000
vt 1.000000 1.000000
vt 0.000000 1.000000
vt 0.000000 0.000000
vt 1.000000 0.000000
vt 0.000000 1.000000
vt 1.000000 0.000000
vt 0.000000 0.000000
vt 1.000000 0.000000
vt 1.000000 1.000000
vt 0.000000 1.000000
vt 0.000000 0.000000
vt 1.000000 1.000000
vt 0.000000 1.000000
vt 0.000000 0.000000
vt 1.000000 1.000000
vt 0.000000 0.000000
vt 1.000000 0.000000
vt 0.000000 1.000000
vt 0.000000 0.000000
vt 1.000000 0.000000
vt 1.000000 1.000000
vt 0.000000 0.000000
vt 1.000000 0.000000
vt 1.000000 1.000000
vt 0.000000 1.000000
vt 1.000000 0.000000
vt 1.000000 1.000000
vt 0.000000 1.000000
vt 0.000000 0.000000
vt 1.000000 0.000000
vt 1.000000 1.000000
vt 0.000000 1.000000
vt 1.000000 0.000000
vt 1.000000 1.000000
vt 0.000000 1.000000
vt 0.000000 0.000000
vt 1.000000 0.000000
vt 1.000000 1.000000
vt 0.000000 1.000000
vt 0.000000 0.000000
vt 1.000000 1.000000
vt 1.000000 1.000000
vt 0.000000 0.000000
vt 0.000000 0.000000
vt 0.000000 0.000000
vt 0.000000 0.000000
vt 0.000000 0.000000
vt 0.000000 0.000000
vt 0.000000 0.000000
vt 0.000000 0.000000
vt 0.000000 0.000000
vt 0.000000 0.000000
vt 0.000000 0.000000
vt 0.000000 0.000000
vt 0.000000 0.000000
vt 0.000000 0.000000
vt 0.000000 0.000000
vt 0.000000 0.000000
vt 0.000000 0.000000
vt 0.000000 0.000000
vt 0.000000 0.000000
vt 0.000000 0.000000
vt 0.000000 0.000000
vt 0.000000 0.000000
vt 0.000000 0.000000
vt 0.000000 0.000000
vn -1.0000 0.0000 0.0000
vn 0.0000 0.4859 -0.8740
vn 1.0000 0.0000 0.0000
vn 0.0000 -1.0000 0.0000
vn 0.0000 1.0000 0.0000
vn 0.0000 0.0000 1.0000
vn 0.0000 -0.4859 -0.8740
vn 0.0000 0.0000 -1.0000
usemtl Material
s off
f 34/1/1 26/2/1 28/3/1 35/4/1
f 35/5/2 28/6/2 32/7/2 37/8/2
f 37/9/3 32/10/3 30/11/3 39/12/3
f 27/13/4 31/14/4 29/15/4 25/16/4
f 32/17/5 28/6/5 26/18/5 30/19/5
f 25/20/6 29/21/6 30/11/6 26/22/6
f 31/23/3 38/24/3 40/25/3 29/26/3
f 38/27/3 37/28/3 39/29/3 40/30/3
f 27/13/7 36/31/7 38/32/7 31/33/7
f 36/34/8 35/35/8 37/36/8 38/37/8
f 25/20/1 33/38/1 36/39/1 27/40/1
f 33/41/1 34/42/1 35/43/1 36/44/1
f 50/45/1 42/46/1 44/47/1 51/48/1
f 51/49/2 44/50/2 48/51/2 53/52/2
f 53/53/3 48/54/3 46/55/3 55/56/3
f 61/57/3 72/58/3 71/59/3 62/60/3
f 43/61/4 47/62/4 45/63/4 41/64/4
f 48/65/5 44/50/5 42/66/5 46/67/5
f 56/68/3 55/69/3 46/55/3 45/70/3
f 40/71/3 39/72/3 30/11/3 29/26/3
f 47/73/3 54/74/3 56/75/3 45/70/3
f 54/76/3 53/77/3 55/78/3 56/79/3
f 43/61/7 52/80/7 54/81/7 47/82/7
f 52/83/8 51/84/8 53/85/8 54/86/8
f 41/87/1 49/88/1 52/89/1 43/90/1
f 49/91/1 50/92/1 51/93/1 52/94/1
f 66/95/1 58/96/1 60/97/1 67/98/1
f 67/99/2 60/100/2 64/101/2 69/102/2
f 69/103/3 64/104/3 62/105/3 71/106/3
f 34/1/1 33/38/1 25/107/1 26/22/1
f 59/108/4 63/109/4 61/110/4 57/111/4
f 64/112/5 60/100/5 58/113/5 62/60/5
f 50/45/1 49/88/1 41/114/1 42/115/1
f 88/116/3 87/117/3 78/118/3 77/119/3
f 63/120/3 70/121/3 72/122/3 61/123/3
f 70/124/3 69/125/3 71/59/3 72/126/3
f 59/108/7 68/127/7 70/128/7 63/129/7
f 68/130/8 67/131/8 69/132/8 70/133/8
f 57/134/1 65/135/1 68/136/1 59/137/1
f 65/138/1 66/139/1 67/140/1 68/141/1
f 82/142/1 74/143/1 76/144/1 83/145/1
f 83/146/2 76/147/2 80/148/2 85/149/2
f 85/150/3 80/151/3 78/118/3 87/152/3
f 41/87/6 45/153/6 46/55/6 42/115/6
f 75/154/4 79/155/4 77/156/4 73/157/4
f 80/158/5 76/147/5 74/159/5 78/160/5
f 62/161/6 58/96/6 57/162/6 61/123/6
f 73/163/6 77/164/6 78/118/6 74/165/6
f 79/166/3 86/167/3 88/168/3 77/119/3
f 86/169/3 85/170/3 87/171/3 88/172/3
f 75/154/7 84/173/7 86/174/7 79/175/7
f 84/176/8 83/177/8 85/178/8 86/179/8
f 73/163/1 81/180/1 84/181/1 75/182/1
f 81/183/1 82/184/1 83/185/1 84/186/1
f 58/187/1 66/139/1 65/188/1 57/111/1
f 82/142/1 81/180/1 73/189/1 74/165/1
usemtl Material.001
f 6/190/4 2/191/4 4/192/4 8/193/4
f 6/190/8 5/194/8 1/195/8 2/191/8
f 8/193/1 7/196/1 5/194/1 6/190/1
f 4/192/6 3/197/6 7/196/6 8/193/6
f 1/195/5 5/194/5 7/196/5 3/197/5
f 2/191/3 1/195/3 3/197/3 4/192/3
f 14/198/4 10/199/4 12/200/4 16/201/4
f 14/198/8 13/202/8 9/203/8 10/199/8
f 16/201/1 15/204/1 13/202/1 14/198/1
f 12/200/6 11/205/6 15/204/6 16/201/6
f 9/203/5 13/202/5 15/204/5 11/205/5
f 10/199/3 9/203/3 11/205/3 12/200/3
f 22/206/4 18/207/4 20/208/4 24/209/4
f 22/206/8 21/210/8 17/211/8 18/207/8
f 24/209/1 23/212/1 21/210/1 22/206/1
f 20/208/6 19/213/6 23/212/6 24/209/6
f 17/211/5 21/210/5 23/212/5 19/213/5
f 18/207/3 17/211/3 19/213/3 20/208/3
o Cube
v -0.587204 2.487155 -0.364813
v -0.587204 -0.264981 -0.364813
v -0.587204 2.487155 -0.102143
v -0.587204 -0.264981 -0.102143
v -0.853184 2.487155 -0.364813
v -0.853184 -0.264981 -0.364813
v -0.853184 2.487155 -0.102143
v -0.853184 -0.264981 -0.102143
v 1.272800 2.487155 -0.364813
v 1.272800 -0.264981 -0.364813
v 1.272800 2.487155 -0.102143
v 1.272800 -0.264981 -0.102143
v 1.006821 2.487155 -0.364813
v 1.006821 -0.264981 -0.364813
v 1.006821 2.487155 -0.102143
v 1.006821 -0.264981 -0.102143
v 3.357161 2.487155 -0.364813
v 3.357161 -0.264981 -0.364813
v 3.357161 2.487155 -0.102143
v 3.357161 -0.264981 -0.102143
v 3.091181 2.487155 -0.364813
v 3.091181 -0.264981 -0.364813
v 3.091181 2.487155 -0.102143
v 3.091181 -0.264981 -0.102143
v -0.985161 1.830591 0.034419
v -0.985161 2.257167 0.034419
v -0.985161 1.830591 -0.038547
v -0.985161 2.257167 -0.038547
v 3.514433 1.830591 0.034419
v 3.514433 2.257167 0.034419
v 3.514433 1.830591 -0.038547
v 3.514433 2.257167 -0.038547
v -0.985161 1.972783 -0.044635
v -0.985161 2.114975 -0.044635
v -0.985161 2.114975 -0.117601
v -0.985161 1.972783 -0.117601
v 3.514433 2.114975 -0.117601
v 3.514433 1.972783 -0.117601
v 3.514433 2.114975 -0.044635
v 3.514433 1.972783 -0.044635
v -0.985161 1.351878 0.034419
v -0.985161 1.778454 0.034419
v -0.985161 1.351878 -0.038547
v -0.985161 1.778454 -0.038547
v 3.514433 1.351878 0.034419
v 3.514433 1.778454 0.034419
v 3.514433 1.351878 -0.038547
v 3.514433 1.778454 -0.038547
v -0.985161 1.494070 -0.044635
v -0.985161 1.636262 -0.044635
v -0.985161 1.636262 -0.117601
v -0.985161 1.494070 -0.117601
v 3.514433 1.636262 -0.117601
v 3.514433 1.494070 -0.117601
v 3.514433 1.636262 -0.044635
v 3.514433 1.494070 -0.044635
v -0.985161 0.867095 0.034419
v -0.985161 1.293670 0.034419
v -0.985161 0.867095 -0.038547
v -0.985161 1.293670 -0.038547
v 3.514433 0.867095 0.034419
v 3.514433 1.293670 0.034419
v 3.514433 0.867095 -0.038547
v 3.514433 1.293670 -0.038547
v -0.985161 1.009287 -0.044635
v -0.985161 1.151479 -0.044635
v -0.985161 1.151479 -0.117601
v -0.985161 1.009287 -0.117601
v 3.514433 1.151479 -0.117601
v 3.514433 1.009287 -0.117601
v 3.514433 1.151479 -0.044635
v 3.514433 1.009287 -0.044635
v -0.985161 0.366384 0.034419
v -0.985161 0.792960 0.034419
v -0.985161 0.366384 -0.038547
v -0.985161 0.792960 -0.038547
v 3.514433 0.366384 0.034419
v 3.514433 0.792960 0.034419
v 3.514433 0.366384 -0.038547
v 3.514433 0.792960 -0.038547
v -0.985161 0.508576 -0.044635
v -0.985161 0.650768 -0.044635
v -0.985161 0.650768 -0.117601
v -0.985161 0.508576 -0.117601
v 3.514433 0.650768 -0.117601
v 3.514433 0.508576 -0.117601
v 3.514433 0.650768 -0.044635
v 3.514433 0.508576 -0.044635
vn 0.0000 -1.0000 0.0000
vn 0.0000 1.0000 0.0000
vn -1.0000 0.0000 0.0000
vn 0.0000 0.4859 -0.8740
vn 1.0000 0.0000 0.0000
vn 0.0000 -0.4859 0.8740
vn 0.0000 0.4859 0.8740
vn 0.0000 0.0000 1.0000
vn 0.0000 -0.4859 -0.8740
vn 0.0000 0.0000 -1.0000
usemtl Material
s off
f 94//9 90//9 92//9 96//9
f 89//10 93//10 95//10 91//10
f 102//9 98//9 100//9 104//9
f 97//10 101//10 103//10 99//10
f 110//9 106//9 108//9 112//9
f 105//10 109//10 111//10 107//10
f 122//11 114//11 116//11 123//11
f 123//12 116//12 120//12 125//12
f 125//13 120//13 118//13 127//13
f 127//14 118//14 114//14 122//14
f 115//9 119//9 117//9 113//9
f 120//10 116//10 114//10 118//10
f 117//15 128//15 121//15 113//15
f 128//16 127//16 122//16 121//16
f 119//13 126//13 128//13 117//13
f 126//13 125//13 127//13 128//13
f 115//17 124//17 126//17 119//17
f 124//18 123//18 125//18 126//18
f 113//11 121//11 124//11 115//11
f 121//11 122//11 123//11 124//11
f 138//11 130//11 132//11 139//11
f 139//12 132//12 136//12 141//12
f 141//13 136//13 134//13 143//13
f 143//14 134//14 130//14 138//14
f 131//9 135//9 133//9 129//9
f 136//10 132//10 130//10 134//10
f 133//15 144//15 137//15 129//15
f 144//16 143//16 138//16 137//16
f 135//13 142//13 144//13 133//13
f 142//13 141//13 143//13 144//13
f 131//17 140//17 142//17 135//17
f 140//18 139//18 141//18 142//18
f 129//11 137//11 140//11 131//11
f 137//11 138//11 139//11 140//11
f 154//11 146//11 148//11 155//11
f 155//12 148//12 152//12 157//12
f 157//13 152//13 150//13 159//13
f 159//14 150//14 146//14 154//14
f 147//9 151//9 149//9 145//9
f 152//10 148//10 146//10 150//10
f 149//15 160//15 153//15 145//15
f 160//16 159//16 154//16 153//16
f 151//13 158//13 160//13 149//13
f 158//13 157//13 159//13 160//13
f 147//17 156//17 158//17 151//17
f 156//18 155//18 157//18 158//18
f 145//11 153//11 156//11 147//11
f 153//11 154//11 155//11 156//11
f 170//11 162//11 164//11 171//11
f 171//12 164//12 168//12 173//12
f 173//13 168//13 166//13 175//13
f 175//14 166//14 162//14 170//14
f 163//9 167//9 165//9 161//9
f 168//10 164//10 162//10 166//10
f 165//15 176//15 169//15 161//15
f 176//16 175//16 170//16 169//16
f 167//13 174//13 176//13 165//13
f 174//13 173//13 175//13 176//13
f 163//17 172//17 174//17 167//17
f 172//18 171//18 173//18 174//18
f 161//11 169//11 172//11 163//11
f 169//11 170//11 171//11 172//11
usemtl Material.001
f 94//18 93//18 89//18 90//18
f 96//11 95//11 93//11 94//11
f 92//16 91//16 95//16 96//16
f 90//13 89//13 91//13 92//13
f 102//18 101//18 97//18 98//18
f 104//11 103//11 101//11 102//11
f 100//16 99//16 103//16 104//16
f 98//13 97//13 99//13 100//13
f 110//18 109//18 105//18 106//18
f 112//11 111//11 109//11 110//11
f 108//16 107//16 111//16 112//16
f 106//13 105//13 107//13 108//13
